<svg width="591" height="394" viewBox="0 0 591 394" fill="none" xmlns="http://www.w3.org/2000/svg">
<rect width="591" height="394" rx="8" fill="url(#paint0_linear_6502_2728)"/>
<rect opacity="0.25" x="50" y="82" width="120" height="140" rx="8" fill="url(#paint1_linear_6502_2728)"/>
<rect opacity="0.25" x="190" y="82" width="120" height="140" rx="8" fill="url(#paint2_linear_6502_2728)"/>
<rect x="210" y="112.66" width="80" height="80" rx="8" fill="url(#paint3_linear_6502_2728)"/>
<path fill-rule="evenodd" clip-rule="evenodd" d="M245.624 164.326C245.065 164.326 244.524 164.071 244.167 163.607L238.744 156.655C238.387 156.192 238.247 155.6 238.387 155.025L240.328 146.347C240.452 145.771 240.825 145.308 241.337 145.052L249.196 141.185C249.444 141.057 249.724 140.993 250.003 140.993C250.283 140.993 250.562 141.057 250.811 141.185L258.669 145.036C259.182 145.292 259.554 145.755 259.678 146.331L261.62 155.009C261.744 155.584 261.62 156.176 261.263 156.639L255.833 163.603C255.476 164.05 254.934 164.326 254.375 164.326H245.624ZM258.487 154.602C258.505 154.606 258.523 154.611 258.539 154.614C258.609 154.624 258.677 154.647 258.738 154.684C258.799 154.721 258.851 154.771 258.892 154.829C258.932 154.887 258.96 154.953 258.974 155.023C258.988 155.093 258.986 155.164 258.97 155.234C258.955 155.303 258.924 155.368 258.882 155.425C258.839 155.482 258.785 155.529 258.723 155.564C258.661 155.599 258.593 155.621 258.522 155.628C258.451 155.635 258.38 155.627 258.312 155.605L258.305 155.604C258.303 155.603 258.302 155.603 258.3 155.602C258.298 155.602 258.297 155.601 258.295 155.6C258.279 155.597 258.262 155.594 258.244 155.59C258.215 155.584 258.186 155.578 258.163 155.572C258.007 155.523 257.854 155.464 257.705 155.396C257.418 155.281 257.12 155.193 256.816 155.135C256.711 155.132 256.609 155.17 256.531 155.241C256.494 155.234 256.379 155.214 256.313 155.203C255.82 156.75 254.774 158.062 253.374 158.89C253.398 158.96 253.426 159.028 253.459 159.095C253.407 159.186 253.393 159.294 253.419 159.395C253.543 159.678 253.695 159.948 253.872 160.202C253.97 160.332 254.062 160.467 254.145 160.607C254.159 160.633 254.176 160.669 254.191 160.702C254.199 160.717 254.205 160.732 254.211 160.744C254.248 160.805 254.272 160.873 254.28 160.944C254.289 161.015 254.283 161.087 254.262 161.155C254.241 161.223 254.206 161.286 254.16 161.34C254.113 161.394 254.055 161.438 253.991 161.468C253.926 161.499 253.856 161.515 253.784 161.517C253.713 161.519 253.642 161.506 253.576 161.478C253.51 161.451 253.45 161.41 253.401 161.359C253.352 161.307 253.314 161.246 253.29 161.179C253.284 161.168 253.279 161.156 253.273 161.145C253.256 161.112 253.239 161.076 253.227 161.048C253.168 160.896 253.119 160.74 253.079 160.582C252.99 160.287 252.873 160 252.728 159.728C252.666 159.643 252.572 159.586 252.468 159.57C252.46 159.556 252.44 159.52 252.419 159.481C252.398 159.444 252.375 159.403 252.359 159.374C250.843 159.947 249.168 159.943 247.654 159.362L247.538 159.571C247.456 159.584 247.379 159.621 247.319 159.678C247.145 159.962 247.012 160.27 246.924 160.591C246.884 160.749 246.835 160.905 246.777 161.057C246.766 161.082 246.75 161.113 246.735 161.142C246.728 161.158 246.72 161.173 246.714 161.186V161.187L246.713 161.188C246.689 161.255 246.651 161.317 246.601 161.368C246.552 161.42 246.492 161.46 246.426 161.488C246.36 161.515 246.289 161.528 246.218 161.526C246.146 161.524 246.076 161.508 246.011 161.477C245.947 161.446 245.889 161.403 245.843 161.349C245.796 161.295 245.761 161.232 245.741 161.163C245.72 161.095 245.714 161.023 245.723 160.953C245.732 160.882 245.755 160.814 245.792 160.753C245.799 160.738 245.807 160.721 245.815 160.703C245.83 160.672 245.845 160.64 245.858 160.616C245.941 160.475 246.032 160.339 246.131 160.209C246.311 159.949 246.465 159.672 246.592 159.383C246.606 159.284 246.59 159.184 246.547 159.095L246.64 158.873C245.244 158.052 244.198 156.75 243.699 155.213L243.477 155.251C243.391 155.19 243.289 155.154 243.184 155.148C242.88 155.206 242.582 155.293 242.295 155.408C242.146 155.475 241.993 155.534 241.837 155.583C241.814 155.589 241.784 155.596 241.755 155.602C241.738 155.606 241.721 155.609 241.706 155.613C241.704 155.613 241.702 155.614 241.7 155.614C241.699 155.615 241.697 155.615 241.696 155.616L241.688 155.617C241.621 155.639 241.549 155.647 241.478 155.64C241.407 155.633 241.339 155.611 241.277 155.576C241.215 155.541 241.161 155.494 241.118 155.437C241.075 155.38 241.045 155.315 241.029 155.246C241.014 155.176 241.012 155.105 241.026 155.035C241.04 154.965 241.068 154.899 241.108 154.841C241.149 154.782 241.201 154.733 241.262 154.696C241.323 154.659 241.391 154.636 241.462 154.626L241.469 154.624L241.473 154.623L241.483 154.621C241.524 154.611 241.573 154.598 241.61 154.592C241.772 154.569 241.935 154.556 242.099 154.552C242.408 154.532 242.714 154.482 243.013 154.402C243.101 154.346 243.176 154.271 243.232 154.182L243.445 154.12C243.214 152.516 243.584 150.882 244.486 149.534L244.322 149.388C244.316 149.283 244.281 149.181 244.22 149.095C243.985 148.894 243.731 148.716 243.462 148.563C243.316 148.489 243.175 148.407 243.039 148.317C243.015 148.3 242.986 148.275 242.958 148.252C242.95 148.245 242.941 148.239 242.934 148.232L242.926 148.227C242.81 148.144 242.731 148.018 242.708 147.878C242.684 147.737 242.718 147.593 242.8 147.477C242.849 147.417 242.911 147.37 242.982 147.339C243.053 147.308 243.13 147.294 243.207 147.298C243.336 147.303 243.461 147.35 243.562 147.431C243.573 147.44 243.585 147.45 243.598 147.46C243.625 147.481 243.654 147.504 243.675 147.522C243.794 147.634 243.906 147.752 244.011 147.877C244.219 148.105 244.45 148.313 244.698 148.496C244.792 148.545 244.9 148.556 245.001 148.526C245.062 148.57 245.123 148.613 245.185 148.656C246.081 147.706 247.241 147.046 248.517 146.758C248.82 146.69 249.128 146.642 249.439 146.617L249.451 146.402C249.53 146.332 249.587 146.24 249.616 146.139C249.627 145.83 249.608 145.522 249.559 145.217C249.527 145.057 249.504 144.896 249.49 144.733C249.489 144.708 249.49 144.675 249.49 144.644C249.491 144.63 249.491 144.616 249.491 144.603C249.491 144.601 249.491 144.599 249.49 144.596C249.49 144.594 249.49 144.591 249.49 144.589C249.483 144.518 249.49 144.446 249.513 144.378C249.535 144.31 249.571 144.248 249.619 144.195C249.667 144.142 249.726 144.099 249.792 144.07C249.857 144.041 249.928 144.026 249.999 144.026C250.071 144.026 250.142 144.041 250.207 144.07C250.273 144.099 250.332 144.141 250.38 144.194C250.428 144.247 250.464 144.31 250.487 144.378C250.509 144.445 250.517 144.517 250.51 144.588C250.51 144.605 250.51 144.623 250.51 144.642C250.511 144.674 250.511 144.707 250.51 144.733C250.497 144.895 250.473 145.057 250.441 145.216C250.392 145.521 250.372 145.83 250.383 146.139C250.403 146.242 250.463 146.333 250.55 146.393L250.55 146.405C250.553 146.452 250.558 146.558 250.562 146.62C252.174 146.766 253.678 147.49 254.794 148.659L254.988 148.521C255.093 148.538 255.2 148.527 255.298 148.487C255.546 148.303 255.777 148.095 255.985 147.867C256.09 147.742 256.203 147.623 256.322 147.512C256.345 147.492 256.378 147.466 256.407 147.444C256.417 147.436 256.426 147.429 256.435 147.422C256.486 147.371 256.548 147.332 256.615 147.307C256.682 147.282 256.754 147.271 256.826 147.276C256.897 147.28 256.967 147.299 257.031 147.332C257.095 147.365 257.151 147.411 257.196 147.467C257.24 147.524 257.273 147.588 257.291 147.658C257.309 147.727 257.312 147.799 257.3 147.87C257.288 147.941 257.262 148.008 257.222 148.068C257.182 148.127 257.131 148.178 257.07 148.217C257.058 148.227 257.044 148.238 257.03 148.25C257.005 148.27 256.979 148.292 256.958 148.307C256.822 148.397 256.68 148.48 256.534 148.554C256.265 148.706 256.011 148.884 255.776 149.085C255.707 149.165 255.673 149.268 255.68 149.373C255.666 149.386 255.633 149.415 255.598 149.446C255.563 149.477 255.526 149.511 255.5 149.534C256.404 150.878 256.782 152.507 256.561 154.11L256.767 154.17C256.819 154.262 256.895 154.339 256.987 154.39C257.286 154.47 257.593 154.52 257.902 154.54C258.065 154.544 258.229 154.557 258.391 154.579C258.418 154.584 258.453 154.593 258.487 154.602ZM253.694 149.436L251.515 150.976L251.507 150.973C251.442 151.02 251.364 151.049 251.283 151.057C251.202 151.064 251.121 151.05 251.048 151.015C250.974 150.979 250.912 150.925 250.867 150.858C250.822 150.79 250.797 150.712 250.793 150.631L250.791 150.629L250.639 147.967C251.791 148.11 252.865 148.626 253.694 149.436ZM249.589 152.354H250.409L250.919 152.99L250.736 153.783L250 154.136L249.261 153.782L249.078 152.989L249.589 152.354ZM248.818 148.06C248.997 148.02 249.179 147.989 249.362 147.967L249.21 150.634L249.199 150.639C249.195 150.72 249.17 150.798 249.125 150.866C249.081 150.934 249.019 150.988 248.945 151.023C248.872 151.059 248.791 151.074 248.71 151.066C248.629 151.059 248.551 151.03 248.486 150.982L248.481 150.985L246.288 149.434C246.986 148.75 247.862 148.274 248.818 148.06ZM245.493 150.431L247.495 152.217L247.493 152.227C247.554 152.281 247.6 152.35 247.625 152.427C247.651 152.504 247.654 152.586 247.636 152.665C247.618 152.744 247.579 152.817 247.522 152.876C247.466 152.934 247.395 152.976 247.316 152.998L247.314 153.006L244.748 153.745C244.62 152.588 244.882 151.422 245.493 150.431ZM248.174 155.175L247.154 157.632C246.175 157.007 245.43 156.078 245.035 154.988L247.667 154.542L247.672 154.548C247.701 154.543 247.73 154.54 247.76 154.54C247.834 154.541 247.906 154.561 247.971 154.596C248.035 154.632 248.09 154.683 248.13 154.744C248.17 154.806 248.195 154.877 248.201 154.95C248.207 155.023 248.195 155.097 248.166 155.165L248.174 155.175ZM251.184 158.335C250.23 158.553 249.234 158.502 248.307 158.187L249.601 155.854H249.603C249.642 155.782 249.699 155.723 249.769 155.681C249.838 155.64 249.918 155.618 249.999 155.617C250.08 155.617 250.16 155.639 250.23 155.681C250.3 155.722 250.357 155.782 250.395 155.853H250.405L251.703 158.19C251.534 158.246 251.361 158.294 251.184 158.335ZM252.856 157.642L251.826 155.16L251.829 155.155C251.783 155.049 251.78 154.929 251.821 154.821C251.862 154.713 251.943 154.624 252.047 154.574C252.101 154.548 252.159 154.533 252.219 154.53C252.254 154.528 252.288 154.53 252.322 154.537L252.327 154.532L254.982 154.979C254.59 156.078 253.842 157.014 252.856 157.642ZM255.261 153.736L252.681 152.995L252.679 152.985C252.6 152.963 252.529 152.921 252.473 152.862C252.417 152.804 252.378 152.731 252.36 152.652C252.342 152.573 252.345 152.491 252.371 152.413C252.396 152.336 252.441 152.268 252.502 152.214L252.501 152.209L254.493 150.432C255.102 151.421 255.372 152.581 255.261 153.736Z" fill="white"/>
<path fill-rule="evenodd" clip-rule="evenodd" d="M229 181.337C229 179.939 230.157 178.805 231.584 178.805H268.416C269.101 178.805 269.759 179.072 270.243 179.546C270.728 180.021 271 180.666 271 181.337V204.127C271 205.526 269.843 206.66 268.416 206.66H231.584C230.157 206.66 229 205.526 229 204.127V181.337Z" fill="white" stroke="black" stroke-width="1.14072" stroke-miterlimit="10" stroke-linejoin="round"/>
<path fill-rule="evenodd" clip-rule="evenodd" d="M243.855 176.197L249.309 172.66L254.738 176.197V181.856H243.829L243.855 176.197Z" fill="white" stroke="black" stroke-width="1.14072" stroke-miterlimit="10" stroke-linejoin="round"/>
<path fill-rule="evenodd" clip-rule="evenodd" d="M246.902 187.888C248.188 187.268 249.693 187.06 251.199 187.396C254.692 188.174 256.881 191.582 256.086 195.006C256.008 195.345 255.664 195.557 255.318 195.48C254.973 195.403 254.756 195.066 254.835 194.727C255.472 191.98 253.717 189.247 250.914 188.622C249.705 188.353 248.5 188.52 247.468 189.017C247.15 189.17 246.766 189.041 246.609 188.73C246.453 188.418 246.584 188.041 246.902 187.888ZM245.493 189.629C245.775 189.839 245.83 190.234 245.615 190.51C245.18 191.071 244.856 191.731 244.686 192.465C244.463 193.425 244.235 194.216 243.992 194.897C243.875 195.225 243.508 195.398 243.174 195.283C242.84 195.169 242.663 194.81 242.78 194.482C243.004 193.855 243.22 193.112 243.434 192.186C243.646 191.273 244.049 190.45 244.594 189.749C244.808 189.472 245.211 189.418 245.493 189.629ZM245.715 192.695C246.223 190.504 248.446 189.133 250.68 189.631C252.019 189.929 253.057 190.831 253.566 191.974C253.707 192.293 253.558 192.664 253.234 192.802C252.909 192.941 252.531 192.795 252.389 192.477C252.037 191.684 251.319 191.063 250.396 190.857C248.852 190.513 247.317 191.461 246.966 192.973C246.817 193.616 246.663 194.198 246.501 194.733C246.4 195.066 246.043 195.256 245.704 195.158C245.364 195.059 245.17 194.709 245.271 194.376C245.424 193.871 245.571 193.315 245.715 192.695ZM248.75 192.123C249.149 191.86 249.655 191.753 250.162 191.865C251.137 192.083 251.748 193.034 251.526 193.99C251.345 194.772 251.151 195.498 250.94 196.181C250.838 196.514 250.48 196.702 250.141 196.601C249.801 196.501 249.61 196.15 249.712 195.817C249.913 195.166 250.099 194.469 250.275 193.711C250.339 193.432 250.161 193.155 249.877 193.092C249.73 193.059 249.583 193.09 249.466 193.167C249.172 193.361 248.773 193.284 248.576 192.996C248.378 192.707 248.456 192.317 248.75 192.123ZM253.323 193.745C253.668 193.822 253.885 194.159 253.806 194.498C253.319 196.599 252.738 198.377 251.943 200.039C251.793 200.354 251.411 200.49 251.09 200.342C250.769 200.195 250.631 199.82 250.781 199.506C251.527 197.946 252.082 196.257 252.555 194.219C252.633 193.88 252.977 193.668 253.323 193.745ZM248.389 194.31C248.73 194.404 248.928 194.752 248.831 195.086C248.377 196.658 247.851 197.924 247.18 199.107C247.132 199.193 247.082 199.278 247.032 199.364C246.854 199.665 246.462 199.767 246.155 199.593C245.848 199.42 245.743 199.035 245.921 198.734C245.967 198.655 246.013 198.575 246.059 198.496C246.674 197.409 247.166 196.235 247.596 194.744C247.693 194.409 248.048 194.215 248.389 194.31ZM245.405 195.985C245.73 196.125 245.877 196.496 245.734 196.814C245.547 197.23 245.349 197.619 245.136 197.994C244.964 198.297 244.574 198.407 244.264 198.238C243.954 198.069 243.842 197.687 244.014 197.383C244.208 197.041 244.389 196.687 244.559 196.307C244.702 195.989 245.081 195.845 245.405 195.985ZM255.125 196.233C255.466 196.328 255.663 196.676 255.566 197.01C255.351 197.75 255.116 198.462 254.854 199.153C254.73 199.479 254.361 199.645 254.029 199.524C253.697 199.403 253.527 199.041 253.651 198.715C253.9 198.058 254.125 197.377 254.332 196.665C254.429 196.331 254.784 196.138 255.125 196.233ZM249.811 197.516C250.138 197.65 250.292 198.018 250.155 198.339C249.92 198.888 249.665 199.414 249.386 199.928C249.333 200.026 249.279 200.123 249.225 200.219C249.052 200.523 248.662 200.632 248.352 200.464C248.042 200.295 247.931 199.912 248.103 199.609C248.154 199.518 248.204 199.428 248.254 199.337C248.514 198.858 248.752 198.367 248.971 197.853C249.108 197.532 249.484 197.381 249.811 197.516Z" fill="#000001"/>
<path fill-rule="evenodd" clip-rule="evenodd" d="M273 76.766C273 88.2347 263.703 97.5319 252.234 97.5319C252.234 97.5319 252.234 97.5319 252.234 97.5319V97.5321H228.872V97.5201C219.496 97.1788 212 89.4701 212 80.0106C212 70.3339 219.845 62.4893 229.521 62.4893C231.831 62.4893 234.036 62.9361 236.054 63.7479C239.861 59.023 245.695 56 252.234 56C263.703 56 273 65.2972 273 76.766Z" fill="white"/>
<path d="M233.5 69.1597H243.417V79.0763H233.5V69.1597Z" fill="#F35325"/>
<path d="M244.583 69.1597H254.5V79.0763H244.583V69.1597Z" fill="#81BC06"/>
<path d="M233.5 80.2429H243.417V90.1596H233.5V80.2429Z" fill="#05A6F0"/>
<path d="M244.583 80.2429H254.5V90.1596H244.583V80.2429Z" fill="#FFBA08"/>
<path fill-rule="evenodd" clip-rule="evenodd" d="M131 78.766C131 90.2347 121.703 99.5319 110.234 99.5319C110.234 99.5319 110.234 99.5319 110.234 99.5319V99.5321H86.8724V99.5201C77.4963 99.1788 70 91.4701 70 82.0106C70 72.3339 77.8445 64.4893 87.5213 64.4893C89.8306 64.4893 92.0356 64.9361 94.0545 65.7479C97.8609 61.023 103.695 58 110.234 58C121.703 58 131 67.2972 131 78.766Z" fill="white"/>
<path d="M93.8363 79.7713C93.8363 80.1406 93.8762 80.44 93.946 80.6596C94.0258 80.8792 94.1256 81.1187 94.2652 81.3782C94.3151 81.4581 94.3351 81.5379 94.3351 81.6078C94.3351 81.7076 94.2752 81.8074 94.1455 81.9072L93.517 82.3264C93.4272 82.3863 93.3375 82.4162 93.2577 82.4162C93.1579 82.4162 93.0581 82.3663 92.9584 82.2765C92.8187 82.1268 92.699 81.9671 92.5992 81.8074C92.4995 81.6377 92.3997 81.4481 92.29 81.2185C91.5118 82.1368 90.5342 82.5959 89.357 82.5959C88.519 82.5959 87.8506 82.3564 87.3618 81.8773C86.8729 81.3982 86.6235 80.7594 86.6235 79.9609C86.6235 79.1125 86.9228 78.4238 87.5314 77.9048C88.1399 77.3858 88.948 77.1263 89.9755 77.1263C90.3147 77.1263 90.6639 77.1562 91.033 77.2062C91.4021 77.2561 91.7812 77.3359 92.1802 77.4257V76.6971C92.1802 75.9386 92.0206 75.4096 91.7114 75.1002C91.3921 74.7907 90.8534 74.641 90.0852 74.641C89.7361 74.641 89.3769 74.6809 89.0078 74.7708C88.6387 74.8606 88.2796 74.9704 87.9304 75.1101C87.7708 75.18 87.6511 75.2199 87.5812 75.2399C87.5114 75.2598 87.4615 75.2698 87.4216 75.2698C87.282 75.2698 87.2121 75.17 87.2121 74.9604V74.4713C87.2121 74.3117 87.2321 74.1919 87.282 74.122C87.3318 74.0521 87.4216 73.9823 87.5613 73.9124C87.9105 73.7328 88.3295 73.583 88.8183 73.4633C89.3071 73.3335 89.8259 73.2736 90.3746 73.2736C91.5617 73.2736 92.4296 73.5431 92.9883 74.0821C93.537 74.6211 93.8163 75.4395 93.8163 76.5374V79.7713H93.8363ZM89.786 81.2884C90.1152 81.2884 90.4544 81.2285 90.8135 81.1087C91.1726 80.989 91.4919 80.7694 91.7612 80.4699C91.9209 80.2803 92.0406 80.0707 92.1004 79.8312C92.1603 79.5916 92.2002 79.3022 92.2002 78.9628V78.5436C91.9109 78.4737 91.6016 78.4139 91.2824 78.3739C90.9631 78.334 90.6539 78.314 90.3446 78.314C89.6762 78.314 89.1874 78.4438 88.8582 78.7133C88.529 78.9828 88.3694 79.3621 88.3694 79.8611C88.3694 80.3302 88.4891 80.6796 88.7385 80.9191C88.9779 81.1686 89.3271 81.2884 89.786 81.2884ZM97.7968 82.3663C97.6172 82.3663 97.4975 82.3364 97.4177 82.2665C97.3379 82.2066 97.268 82.0669 97.2082 81.8773L94.8638 74.1619C94.8039 73.9623 94.774 73.8326 94.774 73.7627C94.774 73.603 94.8538 73.5132 95.0134 73.5132H95.9911C96.1807 73.5132 96.3103 73.5431 96.3802 73.613C96.46 73.6729 96.5198 73.8126 96.5797 74.0022L98.2557 80.6097L99.812 74.0022C99.8618 73.8026 99.9217 73.6729 100.002 73.613C100.081 73.5531 100.221 73.5132 100.401 73.5132H101.199C101.388 73.5132 101.518 73.5431 101.598 73.613C101.677 73.6729 101.747 73.8126 101.787 74.0022L103.363 80.6895L105.089 74.0022C105.149 73.8026 105.219 73.6729 105.289 73.613C105.369 73.5531 105.498 73.5132 105.678 73.5132H106.606C106.765 73.5132 106.855 73.593 106.855 73.7627C106.855 73.8126 106.845 73.8625 106.835 73.9224C106.825 73.9823 106.805 74.0621 106.765 74.1719L104.361 81.8873C104.301 82.0869 104.231 82.2166 104.152 82.2765C104.072 82.3364 103.942 82.3763 103.772 82.3763H102.915C102.725 82.3763 102.595 82.3464 102.515 82.2765C102.436 82.2066 102.366 82.0769 102.326 81.8773L100.78 75.4395L99.2433 81.8673C99.1934 82.0669 99.1336 82.1967 99.0538 82.2665C98.974 82.3364 98.8343 82.3663 98.6547 82.3663H97.7968ZM110.616 82.6358C110.097 82.6358 109.579 82.5759 109.08 82.4562C108.581 82.3364 108.192 82.2066 107.933 82.0569C107.773 81.9671 107.663 81.8673 107.623 81.7775C107.583 81.6876 107.563 81.5878 107.563 81.498V80.989C107.563 80.7794 107.643 80.6795 107.793 80.6795C107.853 80.6795 107.913 80.6895 107.972 80.7095C108.032 80.7295 108.122 80.7694 108.222 80.8093C108.561 80.959 108.93 81.0788 109.319 81.1586C109.718 81.2385 110.107 81.2784 110.506 81.2784C111.135 81.2784 111.624 81.1686 111.963 80.949C112.302 80.7295 112.482 80.4101 112.482 80.0008C112.482 79.7214 112.392 79.4918 112.212 79.3022C112.033 79.1125 111.694 78.9429 111.205 78.7832L109.758 78.334C109.03 78.1044 108.491 77.7651 108.162 77.3159C107.833 76.8768 107.663 76.3877 107.663 75.8687C107.663 75.4495 107.753 75.0802 107.933 74.7608C108.112 74.4414 108.352 74.1619 108.651 73.9424C108.95 73.7128 109.289 73.5431 109.688 73.4233C110.087 73.3036 110.506 73.2537 110.945 73.2537C111.165 73.2537 111.394 73.2636 111.614 73.2936C111.843 73.3235 112.053 73.3635 112.262 73.4034C112.462 73.4533 112.651 73.5032 112.831 73.5631C113.01 73.623 113.15 73.6828 113.25 73.7427C113.389 73.8226 113.489 73.9024 113.549 73.9923C113.609 74.0721 113.639 74.1819 113.639 74.3216V74.7907C113.639 75.0003 113.559 75.1101 113.409 75.1101C113.33 75.1101 113.2 75.0702 113.03 74.9904C112.462 74.7309 111.823 74.6011 111.115 74.6011C110.546 74.6011 110.097 74.6909 109.788 74.8806C109.479 75.0702 109.319 75.3597 109.319 75.7689C109.319 76.0484 109.419 76.2879 109.618 76.4775C109.818 76.6672 110.187 76.8568 110.716 77.0265L112.132 77.4756C112.851 77.7052 113.369 78.0246 113.679 78.4338C113.988 78.843 114.138 79.3121 114.138 79.8312C114.138 80.2603 114.048 80.6496 113.878 80.989C113.699 81.3283 113.459 81.6277 113.15 81.8673C112.841 82.1168 112.472 82.2965 112.043 82.4262C111.594 82.566 111.125 82.6358 110.616 82.6358Z" fill="#252F3E"/>
<path fill-rule="evenodd" clip-rule="evenodd" d="M112.501 87.4867C109.219 89.9121 104.45 91.1996 100.35 91.1996C94.6037 91.1996 89.4261 89.0737 85.5155 85.5404C85.2062 85.2609 85.4855 84.8816 85.8546 85.1012C90.0845 87.5566 95.302 89.0437 100.699 89.0437C104.34 89.0437 108.341 88.2852 112.022 86.7281C112.571 86.4786 113.04 87.0875 112.501 87.4867Z" fill="#FF9900"/>
<path fill-rule="evenodd" clip-rule="evenodd" d="M113.868 85.9296C113.449 85.3906 111.094 85.6701 110.027 85.7998C109.708 85.8398 109.658 85.5603 109.947 85.3507C111.822 84.0332 114.905 84.4125 115.264 84.8516C115.623 85.3008 115.164 88.3849 113.409 89.8621C113.139 90.0917 112.88 89.9719 113 89.6725C113.399 88.6844 114.287 86.4586 113.868 85.9296Z" fill="#FF9900"/>
<rect x="70" y="112.66" width="80" height="80" rx="8" fill="url(#paint4_linear_6502_2728)"/>
<path fill-rule="evenodd" clip-rule="evenodd" d="M111.407 139.539C110.519 139.106 109.481 139.106 108.593 139.539L98.3133 144.554C97.6118 144.896 97.1667 145.608 97.1667 146.389V157.941C97.1667 159.146 97.8409 160.248 98.9125 160.797L108.537 165.727C109.456 166.197 110.544 166.197 111.463 165.727L121.088 160.797C122.159 160.248 122.833 159.146 122.833 157.941V146.389C122.833 145.608 122.388 144.896 121.687 144.554L111.407 139.539ZM109.361 141.112C109.764 140.915 110.236 140.915 110.639 141.112L120.1 145.727L110 150.524L99.9 145.727L109.361 141.112ZM98.9167 147.197V157.941C98.9167 158.489 99.2232 158.99 99.7103 159.239L109.125 164.062V152.046L98.9167 147.197ZM110.875 164.062L120.29 159.239C120.777 158.99 121.083 158.489 121.083 157.941V147.197L110.875 152.046V164.062Z" fill="white"/>
<path fill-rule="evenodd" clip-rule="evenodd" d="M89 181.337C89 179.939 90.1568 178.805 91.5839 178.805H128.416C129.101 178.805 129.759 179.072 130.243 179.546C130.728 180.021 131 180.666 131 181.337V204.127C131 205.526 129.843 206.66 128.416 206.66H91.5839C90.1568 206.66 89 205.526 89 204.127V181.337Z" fill="white" stroke="black" stroke-width="1.14072" stroke-miterlimit="10" stroke-linejoin="round"/>
<path fill-rule="evenodd" clip-rule="evenodd" d="M103.855 176.197L109.309 172.66L114.738 176.197V181.856H103.829L103.855 176.197Z" fill="white" stroke="black" stroke-width="1.14072" stroke-miterlimit="10" stroke-linejoin="round"/>
<path fill-rule="evenodd" clip-rule="evenodd" d="M106.902 187.888C108.188 187.268 109.693 187.06 111.199 187.396C114.692 188.174 116.881 191.582 116.086 195.006C116.008 195.345 115.664 195.557 115.318 195.48C114.973 195.403 114.756 195.066 114.835 194.727C115.472 191.98 113.717 189.247 110.914 188.622C109.705 188.353 108.5 188.52 107.468 189.017C107.15 189.17 106.766 189.041 106.609 188.73C106.453 188.418 106.584 188.041 106.902 187.888ZM105.493 189.629C105.775 189.839 105.83 190.234 105.615 190.51C105.18 191.071 104.856 191.731 104.686 192.465C104.463 193.425 104.235 194.216 103.992 194.897C103.875 195.225 103.508 195.398 103.174 195.283C102.84 195.169 102.663 194.81 102.78 194.482C103.004 193.855 103.22 193.112 103.434 192.186C103.646 191.273 104.049 190.45 104.594 189.749C104.808 189.472 105.211 189.418 105.493 189.629ZM105.715 192.695C106.223 190.504 108.446 189.133 110.68 189.631C112.019 189.929 113.057 190.831 113.566 191.974C113.707 192.293 113.558 192.664 113.234 192.802C112.909 192.941 112.531 192.795 112.389 192.477C112.037 191.684 111.319 191.063 110.396 190.857C108.852 190.513 107.317 191.461 106.966 192.973C106.817 193.616 106.663 194.198 106.501 194.733C106.4 195.066 106.043 195.256 105.704 195.158C105.364 195.059 105.17 194.709 105.271 194.376C105.424 193.871 105.571 193.315 105.715 192.695ZM108.75 192.123C109.149 191.86 109.655 191.753 110.162 191.865C111.137 192.083 111.748 193.034 111.526 193.99C111.345 194.772 111.151 195.498 110.94 196.181C110.838 196.514 110.48 196.702 110.141 196.601C109.801 196.501 109.61 196.15 109.712 195.817C109.913 195.166 110.099 194.469 110.275 193.711C110.339 193.432 110.161 193.155 109.877 193.092C109.73 193.059 109.583 193.09 109.466 193.167C109.172 193.361 108.773 193.284 108.576 192.996C108.378 192.707 108.456 192.317 108.75 192.123ZM113.323 193.745C113.668 193.822 113.885 194.159 113.806 194.498C113.319 196.599 112.738 198.377 111.943 200.039C111.793 200.354 111.411 200.49 111.09 200.342C110.769 200.195 110.631 199.82 110.781 199.506C111.527 197.946 112.082 196.257 112.555 194.219C112.633 193.88 112.977 193.668 113.323 193.745ZM108.389 194.31C108.73 194.404 108.928 194.752 108.831 195.086C108.377 196.658 107.851 197.924 107.18 199.107C107.132 199.193 107.082 199.278 107.032 199.364C106.854 199.665 106.462 199.767 106.155 199.593C105.848 199.42 105.743 199.035 105.921 198.734C105.967 198.655 106.013 198.575 106.059 198.496C106.674 197.409 107.166 196.235 107.596 194.744C107.693 194.409 108.048 194.215 108.389 194.31ZM105.405 195.985C105.73 196.125 105.877 196.496 105.734 196.814C105.547 197.23 105.349 197.619 105.136 197.994C104.964 198.297 104.574 198.407 104.264 198.238C103.954 198.069 103.842 197.687 104.014 197.383C104.208 197.041 104.389 196.687 104.559 196.307C104.702 195.989 105.081 195.845 105.405 195.985ZM115.125 196.233C115.466 196.328 115.663 196.676 115.566 197.01C115.351 197.75 115.116 198.462 114.854 199.153C114.73 199.479 114.361 199.645 114.029 199.524C113.697 199.403 113.527 199.041 113.651 198.715C113.9 198.058 114.125 197.377 114.332 196.665C114.429 196.331 114.784 196.138 115.125 196.233ZM109.811 197.516C110.138 197.65 110.292 198.018 110.155 198.339C109.92 198.888 109.665 199.414 109.386 199.928C109.333 200.026 109.279 200.123 109.225 200.219C109.052 200.523 108.662 200.632 108.352 200.464C108.042 200.295 107.931 199.912 108.103 199.609C108.154 199.518 108.204 199.428 108.254 199.337C108.514 198.858 108.752 198.367 108.971 197.853C109.108 197.532 109.484 197.381 109.811 197.516Z" fill="#000001"/>
<path d="M484 215L484 284C484 288.418 480.418 292 476 292L326 292" stroke="white" stroke-width="2" stroke-linejoin="round"/>
<path d="M324.3 292L333 297.1L333 286.9L324.3 292Z" fill="white"/>
<line x1="484" y1="217" x2="484" y2="213" stroke="white" stroke-width="2"/>
<path d="M129 215L129 284C129 288.418 132.582 292 137 292L292 292" stroke="white" stroke-width="2" stroke-linejoin="round"/>
<path d="M293.7 292L285 297.1L285 286.9L293.7 292Z" fill="white"/>
<line y1="-1" x2="4" y2="-1" transform="matrix(-9.93431e-10 -1 -1 2.79767e-07 128 217)" stroke="white" stroke-width="2"/>
<path d="M225 215L225 284C225 288.418 228.582 292 233 292L296 292" stroke="white" stroke-width="2" stroke-linejoin="round"/>
<path d="M297.7 292L289 297.1L289 286.9L297.7 292Z" fill="white"/>
<line y1="-1" x2="4" y2="-1" transform="matrix(-9.93431e-10 -1 -1 2.79767e-07 224 217)" stroke="white" stroke-width="2"/>
<path d="M387 215L387 284C387 288.418 383.418 292 379 292L322 292" stroke="white" stroke-width="2" stroke-linejoin="round"/>
<path d="M320.3 292L329 297.1L329 286.9L320.3 292Z" fill="white"/>
<line x1="387" y1="217" x2="387" y2="213" stroke="white" stroke-width="2"/>
<rect x="483" y="213" width="2" height="22" fill="url(#paint5_linear_6502_2728)"/>
<rect x="128" y="213" width="2" height="22" fill="url(#paint6_linear_6502_2728)"/>
<rect x="224" y="213" width="2" height="22" fill="url(#paint7_linear_6502_2728)"/>
<rect x="386" y="213" width="2" height="22" fill="url(#paint8_linear_6502_2728)"/>
<g filter="url(#filter0_d_6502_2728)">
<rect x="252" y="248" width="88" height="88" rx="44" fill="#DC477D"/>
<rect x="252.5" y="248.5" width="87" height="87" rx="43.5" stroke="#8040C9" stroke-opacity="0.07"/>
</g>
<path d="M285.118 313.809C288.602 315.645 292.481 316.603 296.42 316.6C302.485 316.605 308.33 314.326 312.792 310.216L307.049 304.208C304.765 306.271 301.933 307.627 298.895 308.111C295.857 308.596 292.743 308.19 289.931 306.94C287.12 305.691 284.731 303.653 283.054 301.074C281.377 298.494 280.485 295.483 280.485 292.407C280.485 289.33 281.377 286.319 283.054 283.74C284.731 281.16 287.12 279.122 289.931 277.873C292.743 276.624 295.857 276.217 298.895 276.702C301.933 277.187 304.765 278.542 307.049 280.605L312.792 274.597C309.894 271.929 306.39 270.009 302.582 269.003C298.774 267.997 294.779 267.935 290.942 268.823C287.105 269.712 283.543 271.523 280.565 274.1C277.587 276.677 275.282 279.942 273.852 283.611C272.422 287.281 271.909 291.244 272.357 295.157C272.806 299.069 274.203 302.813 276.426 306.064C278.65 309.314 281.634 311.973 285.118 313.809Z" fill="white"/>
<path d="M314.791 304.161C315.117 304.379 315.501 304.496 315.893 304.496C316.419 304.494 316.923 304.285 317.294 303.913C317.666 303.542 317.875 303.038 317.877 302.512C317.877 302.12 317.76 301.736 317.542 301.41C317.324 301.084 317.014 300.83 316.652 300.679C316.29 300.529 315.891 300.49 315.506 300.567C315.121 300.643 314.768 300.832 314.49 301.109C314.213 301.387 314.024 301.74 313.948 302.125C313.871 302.51 313.91 302.909 314.06 303.271C314.211 303.634 314.465 303.943 314.791 304.161Z" fill="white"/>
<path d="M296.265 297.644C295.227 297.648 294.211 297.344 293.345 296.77C292.48 296.197 291.804 295.379 291.404 294.421C291.004 293.463 290.897 292.408 291.097 291.389C291.298 290.37 291.796 289.434 292.529 288.698C293.262 287.963 294.196 287.462 295.214 287.258C296.232 287.054 297.288 287.158 298.247 287.555C299.207 287.951 300.027 288.624 300.603 289.488C301.18 290.351 301.487 291.366 301.487 292.404C301.484 293.79 300.934 295.119 299.956 296.1C298.977 297.082 297.651 297.637 296.265 297.644Z" fill="white"/>
<path d="M317.066 297.402C317.392 297.62 317.776 297.737 318.168 297.737C318.694 297.735 319.197 297.526 319.569 297.154C319.941 296.783 320.15 296.279 320.151 295.753C320.151 295.361 320.035 294.977 319.817 294.651C319.599 294.325 319.289 294.071 318.927 293.92C318.565 293.77 318.166 293.731 317.781 293.808C317.396 293.884 317.043 294.073 316.765 294.35C316.488 294.628 316.299 294.981 316.222 295.366C316.146 295.751 316.185 296.15 316.335 296.512C316.485 296.874 316.74 297.184 317.066 297.402Z" fill="white"/>
<path d="M312.27 297.489C311.877 297.489 311.492 297.372 311.166 297.153C310.839 296.934 310.585 296.623 310.435 296.259C310.286 295.896 310.248 295.496 310.326 295.11C310.405 294.725 310.596 294.372 310.875 294.095C311.155 293.819 311.511 293.632 311.897 293.558C312.283 293.483 312.683 293.526 313.045 293.679C313.407 293.833 313.715 294.091 313.93 294.42C314.145 294.749 314.258 295.134 314.254 295.528C314.248 296.05 314.036 296.549 313.665 296.916C313.294 297.283 312.792 297.489 312.27 297.489Z" fill="white"/>
<path d="M317.066 290.718C317.392 290.936 317.776 291.053 318.168 291.053C318.694 291.051 319.197 290.842 319.569 290.47C319.941 290.099 320.15 289.595 320.151 289.069C320.151 288.677 320.035 288.293 319.817 287.967C319.599 287.641 319.289 287.387 318.927 287.236C318.565 287.086 318.166 287.047 317.781 287.124C317.396 287.2 317.043 287.389 316.765 287.666C316.488 287.944 316.299 288.297 316.222 288.682C316.146 289.067 316.185 289.466 316.335 289.828C316.485 290.191 316.74 290.5 317.066 290.718Z" fill="white"/>
<path d="M312.27 291.278C311.878 291.278 311.494 291.162 311.168 290.944C310.842 290.726 310.588 290.416 310.438 290.053C310.288 289.691 310.248 289.292 310.325 288.907C310.401 288.523 310.59 288.169 310.868 287.892C311.145 287.614 311.498 287.425 311.883 287.349C312.268 287.272 312.667 287.312 313.029 287.462C313.392 287.612 313.701 287.866 313.919 288.192C314.137 288.519 314.254 288.902 314.254 289.294C314.254 289.82 314.045 290.325 313.673 290.697C313.301 291.069 312.796 291.278 312.27 291.278Z" fill="white"/>
<path d="M314.905 284.05C315.231 284.267 315.615 284.383 316.008 284.382C316.533 284.381 317.036 284.171 317.407 283.799C317.779 283.428 317.987 282.924 317.987 282.398C317.987 282.006 317.87 281.622 317.652 281.296C317.434 280.97 317.124 280.715 316.761 280.565C316.399 280.415 316 280.376 315.615 280.453C315.23 280.53 314.876 280.72 314.599 280.997C314.322 281.275 314.133 281.629 314.057 282.014C313.981 282.399 314.021 282.798 314.172 283.16C314.323 283.523 314.578 283.832 314.905 284.05Z" fill="white"/>
<rect opacity="0.25" x="330" y="81.6597" width="214" height="140" rx="8" fill="url(#paint9_linear_6502_2728)"/>
<rect x="348" y="112.66" width="80" height="80" rx="8" fill="url(#paint10_linear_6502_2728)"/>
<path fill-rule="evenodd" clip-rule="evenodd" d="M383.624 164.326C383.065 164.326 382.524 164.071 382.167 163.607L376.744 156.655C376.387 156.192 376.247 155.6 376.387 155.025L378.328 146.347C378.452 145.771 378.825 145.308 379.337 145.052L387.196 141.185C387.444 141.057 387.724 140.993 388.003 140.993C388.283 140.993 388.562 141.057 388.811 141.185L396.669 145.036C397.182 145.292 397.554 145.755 397.678 146.331L399.62 155.009C399.744 155.584 399.62 156.176 399.263 156.639L393.833 163.603C393.476 164.05 392.934 164.326 392.375 164.326H383.624ZM396.487 154.602C396.505 154.606 396.523 154.611 396.539 154.614C396.609 154.624 396.677 154.647 396.738 154.684C396.799 154.721 396.851 154.771 396.892 154.829C396.932 154.887 396.96 154.953 396.974 155.023C396.988 155.093 396.986 155.164 396.97 155.234C396.955 155.303 396.924 155.368 396.882 155.425C396.839 155.482 396.785 155.529 396.723 155.564C396.661 155.599 396.593 155.621 396.522 155.628C396.451 155.635 396.38 155.627 396.312 155.605L396.305 155.604C396.303 155.603 396.302 155.603 396.3 155.602C396.298 155.602 396.297 155.601 396.295 155.6C396.279 155.597 396.262 155.594 396.244 155.59C396.215 155.584 396.186 155.578 396.163 155.572C396.007 155.523 395.854 155.464 395.705 155.396C395.418 155.281 395.12 155.193 394.816 155.135C394.711 155.132 394.609 155.17 394.531 155.241C394.494 155.234 394.379 155.214 394.313 155.203C393.82 156.75 392.774 158.062 391.374 158.89C391.398 158.96 391.426 159.028 391.459 159.095C391.407 159.186 391.393 159.294 391.419 159.395C391.543 159.678 391.695 159.948 391.872 160.202C391.97 160.332 392.062 160.467 392.145 160.607C392.159 160.633 392.176 160.669 392.191 160.702C392.199 160.717 392.205 160.732 392.211 160.744C392.248 160.805 392.272 160.873 392.28 160.944C392.289 161.015 392.283 161.087 392.262 161.155C392.241 161.223 392.206 161.286 392.16 161.34C392.113 161.394 392.055 161.438 391.991 161.468C391.926 161.499 391.856 161.515 391.784 161.517C391.713 161.519 391.642 161.506 391.576 161.478C391.51 161.451 391.45 161.41 391.401 161.359C391.352 161.307 391.314 161.246 391.29 161.179C391.284 161.168 391.279 161.156 391.273 161.145C391.256 161.112 391.239 161.076 391.227 161.048C391.168 160.896 391.119 160.74 391.079 160.582C390.99 160.287 390.873 160 390.728 159.728C390.666 159.643 390.572 159.586 390.468 159.57C390.46 159.556 390.44 159.52 390.419 159.481C390.398 159.444 390.375 159.403 390.359 159.374C388.843 159.947 387.168 159.943 385.654 159.362L385.538 159.571C385.456 159.584 385.379 159.621 385.319 159.678C385.145 159.962 385.012 160.27 384.924 160.591C384.884 160.749 384.835 160.905 384.777 161.057C384.766 161.082 384.75 161.113 384.735 161.142C384.728 161.158 384.72 161.173 384.714 161.186V161.187L384.713 161.188C384.689 161.255 384.651 161.317 384.601 161.368C384.552 161.42 384.492 161.46 384.426 161.488C384.36 161.515 384.289 161.528 384.218 161.526C384.146 161.524 384.076 161.508 384.011 161.477C383.947 161.446 383.889 161.403 383.843 161.349C383.796 161.295 383.761 161.232 383.741 161.163C383.72 161.095 383.714 161.023 383.723 160.953C383.732 160.882 383.755 160.814 383.792 160.753C383.799 160.738 383.807 160.721 383.815 160.703C383.83 160.672 383.845 160.64 383.858 160.616C383.941 160.475 384.032 160.339 384.131 160.209C384.311 159.949 384.465 159.672 384.592 159.383C384.606 159.284 384.59 159.184 384.547 159.095L384.64 158.873C383.244 158.052 382.198 156.75 381.699 155.213L381.477 155.251C381.391 155.19 381.289 155.154 381.184 155.148C380.88 155.206 380.582 155.293 380.295 155.408C380.146 155.475 379.993 155.534 379.837 155.583C379.814 155.589 379.784 155.596 379.755 155.602C379.738 155.606 379.721 155.609 379.706 155.613C379.704 155.613 379.702 155.614 379.7 155.614C379.699 155.615 379.697 155.615 379.696 155.616L379.688 155.617C379.621 155.639 379.549 155.647 379.478 155.64C379.407 155.633 379.339 155.611 379.277 155.576C379.215 155.541 379.161 155.494 379.118 155.437C379.075 155.38 379.045 155.315 379.029 155.246C379.014 155.176 379.012 155.105 379.026 155.035C379.04 154.965 379.068 154.899 379.108 154.841C379.149 154.782 379.201 154.733 379.262 154.696C379.323 154.659 379.391 154.636 379.462 154.626L379.469 154.624L379.473 154.623L379.483 154.621C379.524 154.611 379.573 154.598 379.61 154.592C379.772 154.569 379.935 154.556 380.099 154.552C380.408 154.532 380.714 154.482 381.013 154.402C381.101 154.346 381.176 154.271 381.232 154.182L381.445 154.12C381.214 152.516 381.584 150.882 382.486 149.534L382.322 149.388C382.316 149.283 382.281 149.181 382.22 149.095C381.985 148.894 381.731 148.716 381.462 148.563C381.316 148.489 381.175 148.407 381.039 148.317C381.015 148.3 380.986 148.275 380.958 148.252C380.95 148.245 380.941 148.239 380.934 148.232L380.926 148.227C380.81 148.144 380.731 148.018 380.708 147.878C380.684 147.737 380.718 147.593 380.8 147.477C380.849 147.417 380.911 147.37 380.982 147.339C381.053 147.308 381.13 147.294 381.207 147.298C381.336 147.303 381.461 147.35 381.562 147.431C381.573 147.44 381.585 147.45 381.598 147.46C381.625 147.481 381.654 147.504 381.675 147.522C381.794 147.634 381.906 147.752 382.011 147.877C382.219 148.105 382.45 148.313 382.698 148.496C382.792 148.545 382.9 148.556 383.001 148.526C383.062 148.57 383.123 148.613 383.185 148.656C384.081 147.706 385.241 147.046 386.517 146.758C386.82 146.69 387.128 146.642 387.439 146.617L387.451 146.402C387.53 146.332 387.587 146.24 387.616 146.139C387.627 145.83 387.608 145.522 387.559 145.217C387.527 145.057 387.504 144.896 387.49 144.733C387.489 144.708 387.49 144.675 387.49 144.644C387.491 144.63 387.491 144.616 387.491 144.603C387.491 144.601 387.491 144.599 387.49 144.596C387.49 144.594 387.49 144.591 387.49 144.589C387.483 144.518 387.49 144.446 387.513 144.378C387.535 144.31 387.571 144.248 387.619 144.195C387.667 144.142 387.726 144.099 387.792 144.07C387.857 144.041 387.928 144.026 387.999 144.026C388.071 144.026 388.142 144.041 388.207 144.07C388.273 144.099 388.332 144.141 388.38 144.194C388.428 144.247 388.464 144.31 388.487 144.378C388.509 144.445 388.517 144.517 388.51 144.588C388.51 144.605 388.51 144.623 388.51 144.642C388.511 144.674 388.511 144.707 388.51 144.733C388.497 144.895 388.473 145.057 388.441 145.216C388.392 145.521 388.372 145.83 388.383 146.139C388.403 146.242 388.463 146.333 388.55 146.393L388.55 146.405C388.553 146.452 388.558 146.558 388.562 146.62C390.174 146.766 391.678 147.49 392.794 148.659L392.988 148.521C393.093 148.538 393.2 148.527 393.298 148.487C393.546 148.303 393.777 148.095 393.985 147.867C394.09 147.742 394.203 147.623 394.322 147.512C394.345 147.492 394.378 147.466 394.407 147.444C394.417 147.436 394.426 147.429 394.435 147.422C394.486 147.371 394.548 147.332 394.615 147.307C394.682 147.282 394.754 147.271 394.826 147.276C394.897 147.28 394.967 147.299 395.031 147.332C395.095 147.365 395.151 147.411 395.196 147.467C395.24 147.524 395.273 147.588 395.291 147.658C395.309 147.727 395.312 147.799 395.3 147.87C395.288 147.941 395.262 148.008 395.222 148.068C395.182 148.127 395.131 148.178 395.07 148.217C395.058 148.227 395.044 148.238 395.03 148.25C395.005 148.27 394.979 148.292 394.958 148.307C394.822 148.397 394.68 148.48 394.534 148.554C394.265 148.706 394.011 148.884 393.776 149.085C393.707 149.165 393.673 149.268 393.68 149.373C393.666 149.386 393.633 149.415 393.598 149.446C393.563 149.477 393.526 149.511 393.5 149.534C394.404 150.878 394.782 152.507 394.561 154.11L394.767 154.17C394.819 154.262 394.895 154.339 394.987 154.39C395.286 154.47 395.593 154.52 395.902 154.54C396.065 154.544 396.229 154.557 396.391 154.579C396.418 154.584 396.453 154.593 396.487 154.602ZM391.694 149.436L389.515 150.976L389.507 150.973C389.442 151.02 389.364 151.049 389.283 151.057C389.202 151.064 389.121 151.05 389.048 151.015C388.974 150.979 388.912 150.925 388.867 150.858C388.822 150.79 388.797 150.712 388.793 150.631L388.791 150.629L388.639 147.967C389.791 148.11 390.865 148.626 391.694 149.436ZM387.589 152.354H388.409L388.919 152.99L388.736 153.783L388 154.136L387.261 153.782L387.078 152.989L387.589 152.354ZM386.818 148.06C386.997 148.02 387.179 147.989 387.362 147.967L387.21 150.634L387.199 150.639C387.195 150.72 387.17 150.798 387.125 150.866C387.081 150.934 387.019 150.988 386.945 151.023C386.872 151.059 386.791 151.074 386.71 151.066C386.629 151.059 386.551 151.03 386.486 150.982L386.481 150.985L384.288 149.434C384.986 148.75 385.862 148.274 386.818 148.06ZM383.493 150.431L385.495 152.217L385.493 152.227C385.554 152.281 385.6 152.35 385.625 152.427C385.651 152.504 385.654 152.586 385.636 152.665C385.618 152.744 385.579 152.817 385.522 152.876C385.466 152.934 385.395 152.976 385.316 152.998L385.314 153.006L382.748 153.745C382.62 152.588 382.882 151.422 383.493 150.431ZM386.174 155.175L385.154 157.632C384.175 157.007 383.43 156.078 383.035 154.988L385.667 154.542L385.672 154.548C385.701 154.543 385.73 154.54 385.76 154.54C385.834 154.541 385.906 154.561 385.971 154.596C386.035 154.632 386.09 154.683 386.13 154.744C386.17 154.806 386.195 154.877 386.201 154.95C386.207 155.023 386.195 155.097 386.166 155.165L386.174 155.175ZM389.184 158.335C388.23 158.553 387.234 158.502 386.307 158.187L387.601 155.854H387.603C387.642 155.782 387.699 155.723 387.769 155.681C387.838 155.64 387.918 155.618 387.999 155.617C388.08 155.617 388.16 155.639 388.23 155.681C388.3 155.722 388.357 155.782 388.395 155.853H388.405L389.703 158.19C389.534 158.246 389.361 158.294 389.184 158.335ZM390.856 157.642L389.826 155.16L389.829 155.155C389.783 155.049 389.78 154.929 389.821 154.821C389.862 154.713 389.943 154.624 390.047 154.574C390.101 154.548 390.159 154.533 390.219 154.53C390.254 154.528 390.288 154.53 390.322 154.537L390.327 154.532L392.982 154.979C392.59 156.078 391.842 157.014 390.856 157.642ZM393.261 153.736L390.681 152.995L390.679 152.985C390.6 152.963 390.529 152.921 390.473 152.862C390.417 152.804 390.378 152.731 390.36 152.652C390.342 152.573 390.345 152.491 390.371 152.413C390.396 152.336 390.441 152.268 390.502 152.214L390.501 152.209L392.493 150.432C393.102 151.421 393.372 152.581 393.261 153.736Z" fill="white"/>
<path fill-rule="evenodd" clip-rule="evenodd" d="M367 181.337C367 179.939 368.157 178.805 369.584 178.805H406.416C407.101 178.805 407.759 179.072 408.243 179.546C408.728 180.021 409 180.666 409 181.337V204.127C409 205.526 407.843 206.66 406.416 206.66H369.584C368.157 206.66 367 205.526 367 204.127V181.337Z" fill="white" stroke="black" stroke-width="1.14072" stroke-miterlimit="10" stroke-linejoin="round"/>
<path fill-rule="evenodd" clip-rule="evenodd" d="M381.855 176.197L387.309 172.66L392.738 176.197V181.856H381.829L381.855 176.197Z" fill="white" stroke="black" stroke-width="1.14072" stroke-miterlimit="10" stroke-linejoin="round"/>
<path fill-rule="evenodd" clip-rule="evenodd" d="M384.902 187.888C386.188 187.268 387.693 187.06 389.199 187.396C392.692 188.174 394.881 191.582 394.086 195.006C394.008 195.345 393.664 195.557 393.318 195.48C392.973 195.403 392.756 195.066 392.835 194.727C393.472 191.98 391.717 189.247 388.914 188.622C387.705 188.353 386.5 188.52 385.468 189.017C385.15 189.17 384.766 189.041 384.609 188.73C384.453 188.418 384.584 188.041 384.902 187.888ZM383.493 189.629C383.775 189.839 383.83 190.234 383.615 190.51C383.18 191.071 382.856 191.731 382.686 192.465C382.463 193.425 382.235 194.216 381.992 194.897C381.875 195.225 381.508 195.398 381.174 195.283C380.84 195.169 380.663 194.81 380.78 194.482C381.004 193.855 381.22 193.112 381.434 192.186C381.646 191.273 382.049 190.45 382.594 189.749C382.808 189.472 383.211 189.418 383.493 189.629ZM383.715 192.695C384.223 190.504 386.446 189.133 388.68 189.631C390.019 189.929 391.057 190.831 391.566 191.974C391.707 192.293 391.558 192.664 391.234 192.802C390.909 192.941 390.531 192.795 390.389 192.477C390.037 191.684 389.319 191.063 388.396 190.857C386.852 190.513 385.317 191.461 384.966 192.973C384.817 193.616 384.663 194.198 384.501 194.733C384.4 195.066 384.043 195.256 383.704 195.158C383.364 195.059 383.17 194.709 383.271 194.376C383.424 193.871 383.571 193.315 383.715 192.695ZM386.75 192.123C387.149 191.86 387.655 191.753 388.162 191.865C389.137 192.083 389.748 193.034 389.526 193.99C389.345 194.772 389.151 195.498 388.94 196.181C388.838 196.514 388.48 196.702 388.141 196.601C387.801 196.501 387.61 196.15 387.712 195.817C387.913 195.166 388.099 194.469 388.275 193.711C388.339 193.432 388.161 193.155 387.877 193.092C387.73 193.059 387.583 193.09 387.466 193.167C387.172 193.361 386.773 193.284 386.576 192.996C386.378 192.707 386.456 192.317 386.75 192.123ZM391.323 193.745C391.668 193.822 391.885 194.159 391.806 194.498C391.319 196.599 390.738 198.377 389.943 200.039C389.793 200.354 389.411 200.49 389.09 200.342C388.769 200.195 388.631 199.82 388.781 199.506C389.527 197.946 390.082 196.257 390.555 194.219C390.633 193.88 390.977 193.668 391.323 193.745ZM386.389 194.31C386.73 194.404 386.928 194.752 386.831 195.086C386.377 196.658 385.851 197.924 385.18 199.107C385.132 199.193 385.082 199.278 385.032 199.364C384.854 199.665 384.462 199.767 384.155 199.593C383.848 199.42 383.743 199.035 383.921 198.734C383.967 198.655 384.013 198.575 384.059 198.496C384.674 197.409 385.166 196.235 385.596 194.744C385.693 194.409 386.048 194.215 386.389 194.31ZM383.405 195.985C383.73 196.125 383.877 196.496 383.734 196.814C383.547 197.23 383.349 197.619 383.136 197.994C382.964 198.297 382.574 198.407 382.264 198.238C381.954 198.069 381.842 197.687 382.014 197.383C382.208 197.041 382.389 196.687 382.559 196.307C382.702 195.989 383.081 195.845 383.405 195.985ZM393.125 196.233C393.466 196.328 393.663 196.676 393.566 197.01C393.351 197.75 393.116 198.462 392.854 199.153C392.73 199.479 392.361 199.645 392.029 199.524C391.697 199.403 391.527 199.041 391.651 198.715C391.9 198.058 392.125 197.377 392.332 196.665C392.429 196.331 392.784 196.138 393.125 196.233ZM387.811 197.516C388.138 197.65 388.292 198.018 388.155 198.339C387.92 198.888 387.665 199.414 387.386 199.928C387.333 200.026 387.279 200.123 387.225 200.219C387.052 200.523 386.662 200.632 386.352 200.464C386.042 200.295 385.931 199.912 386.103 199.609C386.154 199.518 386.204 199.428 386.254 199.337C386.514 198.858 386.752 198.367 386.971 197.853C387.108 197.532 387.484 197.381 387.811 197.516Z" fill="#000001"/>
<rect x="444" y="112.66" width="80" height="80" rx="8" fill="url(#paint11_linear_6502_2728)"/>
<path fill-rule="evenodd" clip-rule="evenodd" d="M485.407 139.539C484.519 139.106 483.481 139.106 482.593 139.539L472.313 144.554C471.612 144.896 471.167 145.608 471.167 146.389V157.941C471.167 159.146 471.841 160.248 472.912 160.797L482.537 165.727C483.456 166.197 484.544 166.197 485.463 165.727L495.088 160.797C496.159 160.248 496.833 159.146 496.833 157.941V146.389C496.833 145.608 496.388 144.896 495.687 144.554L485.407 139.539ZM483.361 141.112C483.764 140.915 484.236 140.915 484.639 141.112L494.1 145.727L484 150.524L473.9 145.727L483.361 141.112ZM472.917 147.197V157.941C472.917 158.489 473.223 158.99 473.71 159.239L483.125 164.062V152.046L472.917 147.197ZM484.875 164.062L494.29 159.239C494.777 158.99 495.083 158.489 495.083 157.941V147.197L484.875 152.046V164.062Z" fill="white"/>
<path fill-rule="evenodd" clip-rule="evenodd" d="M463 181.337C463 179.939 464.157 178.805 465.584 178.805H502.416C503.101 178.805 503.759 179.072 504.243 179.546C504.728 180.021 505 180.666 505 181.337V204.127C505 205.526 503.843 206.66 502.416 206.66H465.584C464.157 206.66 463 205.526 463 204.127V181.337Z" fill="white" stroke="black" stroke-width="1.14072" stroke-miterlimit="10" stroke-linejoin="round"/>
<path fill-rule="evenodd" clip-rule="evenodd" d="M477.855 176.197L483.309 172.66L488.739 176.197V181.856H477.83L477.855 176.197Z" fill="white" stroke="black" stroke-width="1.14072" stroke-miterlimit="10" stroke-linejoin="round"/>
<path fill-rule="evenodd" clip-rule="evenodd" d="M480.902 187.888C482.188 187.268 483.693 187.06 485.199 187.396C488.692 188.174 490.881 191.582 490.086 195.006C490.008 195.345 489.664 195.557 489.318 195.48C488.973 195.403 488.756 195.066 488.835 194.727C489.472 191.98 487.717 189.247 484.914 188.622C483.705 188.353 482.5 188.52 481.468 189.017C481.15 189.17 480.766 189.041 480.609 188.73C480.453 188.418 480.584 188.041 480.902 187.888ZM479.493 189.629C479.775 189.839 479.83 190.234 479.615 190.51C479.18 191.071 478.856 191.731 478.686 192.465C478.463 193.425 478.235 194.216 477.992 194.897C477.875 195.225 477.508 195.398 477.174 195.283C476.84 195.169 476.663 194.81 476.78 194.482C477.004 193.855 477.22 193.112 477.434 192.186C477.646 191.273 478.049 190.45 478.594 189.749C478.808 189.472 479.211 189.418 479.493 189.629ZM479.715 192.695C480.223 190.504 482.446 189.133 484.68 189.631C486.019 189.929 487.057 190.831 487.566 191.974C487.707 192.293 487.558 192.664 487.234 192.802C486.909 192.941 486.531 192.795 486.389 192.477C486.037 191.684 485.319 191.063 484.396 190.857C482.852 190.513 481.317 191.461 480.966 192.973C480.817 193.616 480.663 194.198 480.501 194.733C480.4 195.066 480.043 195.256 479.704 195.158C479.364 195.059 479.17 194.709 479.271 194.376C479.424 193.871 479.571 193.315 479.715 192.695ZM482.75 192.123C483.149 191.86 483.655 191.753 484.162 191.865C485.137 192.083 485.748 193.034 485.526 193.99C485.345 194.772 485.151 195.498 484.94 196.181C484.838 196.514 484.48 196.702 484.141 196.601C483.801 196.501 483.61 196.15 483.712 195.817C483.913 195.166 484.099 194.469 484.275 193.711C484.339 193.432 484.161 193.155 483.877 193.092C483.73 193.059 483.583 193.09 483.466 193.167C483.172 193.361 482.773 193.284 482.576 192.996C482.378 192.707 482.456 192.317 482.75 192.123ZM487.323 193.745C487.668 193.822 487.885 194.159 487.806 194.498C487.319 196.599 486.738 198.377 485.943 200.039C485.793 200.354 485.411 200.49 485.09 200.342C484.769 200.195 484.631 199.82 484.781 199.506C485.527 197.946 486.082 196.257 486.555 194.219C486.633 193.88 486.977 193.668 487.323 193.745ZM482.389 194.31C482.73 194.404 482.928 194.752 482.831 195.086C482.377 196.658 481.851 197.924 481.18 199.107C481.132 199.193 481.082 199.278 481.032 199.364C480.854 199.665 480.462 199.767 480.155 199.593C479.848 199.42 479.743 199.035 479.921 198.734C479.967 198.655 480.013 198.575 480.059 198.496C480.674 197.409 481.166 196.235 481.596 194.744C481.693 194.409 482.048 194.215 482.389 194.31ZM479.405 195.985C479.73 196.125 479.877 196.496 479.734 196.814C479.547 197.23 479.349 197.619 479.136 197.994C478.964 198.297 478.574 198.407 478.264 198.238C477.954 198.069 477.842 197.687 478.014 197.383C478.208 197.041 478.389 196.687 478.559 196.307C478.702 195.989 479.081 195.845 479.405 195.985ZM489.125 196.233C489.466 196.328 489.663 196.676 489.566 197.01C489.351 197.75 489.116 198.462 488.854 199.153C488.73 199.479 488.361 199.645 488.029 199.524C487.697 199.403 487.527 199.041 487.651 198.715C487.9 198.058 488.125 197.377 488.332 196.665C488.429 196.331 488.784 196.138 489.125 196.233ZM483.811 197.516C484.138 197.65 484.292 198.018 484.155 198.339C483.92 198.888 483.665 199.414 483.386 199.928C483.333 200.026 483.279 200.123 483.225 200.219C483.052 200.523 482.662 200.632 482.352 200.464C482.042 200.295 481.931 199.912 482.103 199.609C482.154 199.518 482.204 199.428 482.254 199.337C482.514 198.858 482.752 198.367 482.971 197.853C483.108 197.532 483.484 197.381 483.811 197.516Z" fill="#000001"/>
<rect x="352" y="58" width="42" height="42" rx="4" fill="white"/>
<path d="M368 74.25C368 73.8358 368.336 73.5 368.75 73.5H369.25C369.664 73.5 370 73.8358 370 74.25C370 74.6642 369.664 75 369.25 75H368.75C368.336 75 368 74.6642 368 74.25Z" fill="#000001"/>
<path fill-rule="evenodd" clip-rule="evenodd" d="M367.25 71C366.007 71 365 72.0074 365 73.25V75.75C365 76.9926 366.007 78 367.25 78H378.75C379.993 78 381 76.9926 381 75.75V73.25C381 72.0074 379.993 71 378.75 71H367.25ZM366.5 73.25C366.5 72.8358 366.836 72.5 367.25 72.5H378.75C379.164 72.5 379.5 72.8358 379.5 73.25V75.75C379.5 76.1642 379.164 76.5 378.75 76.5H367.25C366.836 76.5 366.5 76.1642 366.5 75.75V73.25Z" fill="#000001"/>
<path d="M368.75 82.5C368.336 82.5 368 82.8358 368 83.25C368 83.6642 368.336 84 368.75 84H369.25C369.664 84 370 83.6642 370 83.25C370 82.8358 369.664 82.5 369.25 82.5H368.75Z" fill="#000001"/>
<path fill-rule="evenodd" clip-rule="evenodd" d="M367.25 80C366.007 80 365 81.0074 365 82.25V84.75C365 85.9926 366.007 87 367.25 87H378.75C379.993 87 381 85.9926 381 84.75V82.25C381 81.0074 379.993 80 378.75 80H367.25ZM366.5 82.25C366.5 81.8358 366.836 81.5 367.25 81.5H378.75C379.164 81.5 379.5 81.8358 379.5 82.25V84.75C379.5 85.1642 379.164 85.5 378.75 85.5H367.25C366.836 85.5 366.5 85.1642 366.5 84.75V82.25Z" fill="#000001"/>
<rect x="0.5" y="0.5" width="590" height="393" rx="7.5" stroke="black" stroke-opacity="0.04"/>
<defs>
<filter id="filter0_d_6502_2728" x="212" y="212" width="168" height="168" filterUnits="userSpaceOnUse" color-interpolation-filters="sRGB">
<feFlood flood-opacity="0" result="BackgroundImageFix"/>
<feColorMatrix in="SourceAlpha" type="matrix" values="0 0 0 0 0 0 0 0 0 0 0 0 0 0 0 0 0 0 127 0" result="hardAlpha"/>
<feOffset dy="4"/>
<feGaussianBlur stdDeviation="20"/>
<feComposite in2="hardAlpha" operator="out"/>
<feColorMatrix type="matrix" values="0 0 0 0 0.945098 0 0 0 0 0.909804 0 0 0 0 0.996078 0 0 0 0.5 0"/>
<feBlend mode="normal" in2="BackgroundImageFix" result="effect1_dropShadow_6502_2728"/>
<feBlend mode="normal" in="SourceGraphic" in2="effect1_dropShadow_6502_2728" result="shape"/>
</filter>
<linearGradient id="paint0_linear_6502_2728" x1="-1.7806e-05" y1="394" x2="636.827" y2="-293.527" gradientUnits="userSpaceOnUse">
<stop stop-color="#D8EFFF"/>
<stop offset="1" stop-color="#DC477D"/>
</linearGradient>
<linearGradient id="paint1_linear_6502_2728" x1="110" y1="82" x2="110" y2="222" gradientUnits="userSpaceOnUse">
<stop stop-color="white"/>
<stop offset="1" stop-color="white" stop-opacity="0"/>
</linearGradient>
<linearGradient id="paint2_linear_6502_2728" x1="250" y1="82" x2="250" y2="222" gradientUnits="userSpaceOnUse">
<stop stop-color="white"/>
<stop offset="1" stop-color="white" stop-opacity="0"/>
</linearGradient>
<linearGradient id="paint3_linear_6502_2728" x1="249.999" y1="232.66" x2="330" y2="152.661" gradientUnits="userSpaceOnUse">
<stop stop-color="#0E0F12"/>
<stop offset="1" stop-color="#373942"/>
</linearGradient>
<linearGradient id="paint4_linear_6502_2728" x1="109.999" y1="232.66" x2="190" y2="152.661" gradientUnits="userSpaceOnUse">
<stop stop-color="#0E0F12"/>
<stop offset="1" stop-color="#373942"/>
</linearGradient>
<linearGradient id="paint5_linear_6502_2728" x1="484" y1="213" x2="484" y2="235" gradientUnits="userSpaceOnUse">
<stop stop-color="#DAA0C1"/>
<stop offset="1" stop-color="#DAA0C2" stop-opacity="0"/>
</linearGradient>
<linearGradient id="paint6_linear_6502_2728" x1="129" y1="213" x2="129" y2="235" gradientUnits="userSpaceOnUse">
<stop stop-color="#DAC7DF"/>
<stop offset="1" stop-color="#DAA0C2" stop-opacity="0"/>
<stop offset="1" stop-color="#D9C9E2" stop-opacity="0"/>
</linearGradient>
<linearGradient id="paint7_linear_6502_2728" x1="225" y1="213" x2="225" y2="235" gradientUnits="userSpaceOnUse">
<stop stop-color="#DABBD7"/>
<stop offset="1" stop-color="#DAA0C2" stop-opacity="0"/>
<stop offset="1" stop-color="#D9BDD8" stop-opacity="0"/>
</linearGradient>
<linearGradient id="paint8_linear_6502_2728" x1="387" y1="213" x2="387" y2="235" gradientUnits="userSpaceOnUse">
<stop stop-color="#DAABCA"/>
<stop offset="1" stop-color="#DAA0C2" stop-opacity="0"/>
<stop offset="1" stop-color="#D9BDD8" stop-opacity="0"/>
</linearGradient>
<linearGradient id="paint9_linear_6502_2728" x1="437" y1="81.6597" x2="437" y2="221.66" gradientUnits="userSpaceOnUse">
<stop stop-color="white"/>
<stop offset="1" stop-color="white" stop-opacity="0"/>
</linearGradient>
<linearGradient id="paint10_linear_6502_2728" x1="387.999" y1="232.66" x2="468" y2="152.661" gradientUnits="userSpaceOnUse">
<stop stop-color="#0E0F12"/>
<stop offset="1" stop-color="#373942"/>
</linearGradient>
<linearGradient id="paint11_linear_6502_2728" x1="483.999" y1="232.66" x2="564" y2="152.661" gradientUnits="userSpaceOnUse">
<stop stop-color="#0E0F12"/>
<stop offset="1" stop-color="#373942"/>
</linearGradient>
</defs>
</svg>
